<mxfile host="app.diagrams.net" modified="2022-06-10T21:17:51.107Z" agent="5.0 (Windows)" etag="Om1ujcIS1JLY9vz8I0KG" version="19.0.3" type="github">
  <diagram id="sEQqUNNo2czjuSJTAVwh" name="Page-1">
    <mxGraphModel dx="1038" dy="536" grid="1" gridSize="10" guides="1" tooltips="1" connect="1" arrows="1" fold="1" page="1" pageScale="1" pageWidth="827" pageHeight="1169" math="0" shadow="0">
      <root>
        <mxCell id="0" />
        <mxCell id="1" parent="0" />
        <mxCell id="0XRb7Jwyh2wc5KVwc6p0-2" value="Provider" style="shape=umlActor;verticalLabelPosition=bottom;verticalAlign=top;html=1;outlineConnect=0;" parent="1" vertex="1">
          <mxGeometry x="350" y="140" width="30" height="60" as="geometry" />
        </mxCell>
        <mxCell id="0XRb7Jwyh2wc5KVwc6p0-8" value="&lt;div align=&quot;center&quot;&gt;&lt;br&gt;&lt;/div&gt;" style="whiteSpace=wrap;html=1;aspect=fixed;align=center;" parent="1" vertex="1">
          <mxGeometry x="212" y="278" width="202" height="202" as="geometry" />
        </mxCell>
        <mxCell id="5KqHmV9YIozL0LBUB5xf-10" style="edgeStyle=orthogonalEdgeStyle;rounded=0;orthogonalLoop=1;jettySize=auto;html=1;" parent="1" source="0XRb7Jwyh2wc5KVwc6p0-7" edge="1">
          <mxGeometry relative="1" as="geometry">
            <mxPoint x="260" y="200" as="sourcePoint" />
            <mxPoint x="270" y="290" as="targetPoint" />
            <Array as="points" />
          </mxGeometry>
        </mxCell>
        <mxCell id="0XRb7Jwyh2wc5KVwc6p0-7" value="Client" style="shape=umlActor;verticalLabelPosition=bottom;verticalAlign=top;html=1;outlineConnect=0;" parent="1" vertex="1">
          <mxGeometry x="255" y="141" width="30" height="60" as="geometry" />
        </mxCell>
        <mxCell id="5KqHmV9YIozL0LBUB5xf-22" style="edgeStyle=orthogonalEdgeStyle;rounded=0;orthogonalLoop=1;jettySize=auto;html=1;entryX=0.75;entryY=1;entryDx=0;entryDy=0;" parent="1" source="0XRb7Jwyh2wc5KVwc6p0-10" target="5KqHmV9YIozL0LBUB5xf-1" edge="1">
          <mxGeometry relative="1" as="geometry" />
        </mxCell>
        <mxCell id="5KqHmV9YIozL0LBUB5xf-24" value="&lt;div&gt;Aprove&lt;/div&gt;&lt;div&gt;Deny&lt;/div&gt;" style="edgeLabel;html=1;align=center;verticalAlign=middle;resizable=0;points=[];" parent="5KqHmV9YIozL0LBUB5xf-22" vertex="1" connectable="0">
          <mxGeometry x="-0.4597" y="1" relative="1" as="geometry">
            <mxPoint x="13" as="offset" />
          </mxGeometry>
        </mxCell>
        <mxCell id="0XRb7Jwyh2wc5KVwc6p0-10" value="&lt;div align=&quot;center&quot;&gt;&amp;lt;&amp;lt;external&amp;gt;&amp;gt;&lt;/div&gt;&lt;div align=&quot;center&quot;&gt;Login/Registration&lt;br&gt;&lt;/div&gt;" style="whiteSpace=wrap;html=1;aspect=fixed;align=center;" parent="1" vertex="1">
          <mxGeometry x="398" y="500" width="108" height="108" as="geometry" />
        </mxCell>
        <mxCell id="5KqHmV9YIozL0LBUB5xf-23" style="edgeStyle=orthogonalEdgeStyle;rounded=0;orthogonalLoop=1;jettySize=auto;html=1;entryX=0.25;entryY=1;entryDx=0;entryDy=0;" parent="1" source="0XRb7Jwyh2wc5KVwc6p0-11" target="5KqHmV9YIozL0LBUB5xf-1" edge="1">
          <mxGeometry relative="1" as="geometry" />
        </mxCell>
        <mxCell id="5KqHmV9YIozL0LBUB5xf-25" value="&lt;div&gt;Authorize&lt;/div&gt;&lt;div&gt;Deny&lt;br&gt;&lt;/div&gt;" style="edgeLabel;html=1;align=center;verticalAlign=middle;resizable=0;points=[];" parent="5KqHmV9YIozL0LBUB5xf-23" vertex="1" connectable="0">
          <mxGeometry x="-0.498" relative="1" as="geometry">
            <mxPoint x="-15" as="offset" />
          </mxGeometry>
        </mxCell>
        <mxCell id="0XRb7Jwyh2wc5KVwc6p0-11" value="&lt;div align=&quot;center&quot;&gt;&amp;lt;&amp;lt;external&amp;gt;&amp;gt;&lt;/div&gt;&lt;div align=&quot;center&quot;&gt;Payment&lt;br&gt;&lt;/div&gt;" style="whiteSpace=wrap;html=1;aspect=fixed;align=center;" parent="1" vertex="1">
          <mxGeometry x="130" y="500" width="108" height="108" as="geometry" />
        </mxCell>
        <mxCell id="5KqHmV9YIozL0LBUB5xf-2" style="edgeStyle=orthogonalEdgeStyle;rounded=0;orthogonalLoop=1;jettySize=auto;html=1;entryX=0.5;entryY=0;entryDx=0;entryDy=0;" parent="1" source="5KqHmV9YIozL0LBUB5xf-1" target="0XRb7Jwyh2wc5KVwc6p0-11" edge="1">
          <mxGeometry relative="1" as="geometry" />
        </mxCell>
        <mxCell id="5KqHmV9YIozL0LBUB5xf-20" value="&lt;div&gt;Payment&lt;/div&gt;&lt;div&gt;Request&lt;br&gt;&lt;/div&gt;" style="edgeLabel;html=1;align=center;verticalAlign=middle;resizable=0;points=[];" parent="5KqHmV9YIozL0LBUB5xf-2" vertex="1" connectable="0">
          <mxGeometry x="0.3071" y="-3" relative="1" as="geometry">
            <mxPoint x="-11" y="22" as="offset" />
          </mxGeometry>
        </mxCell>
        <mxCell id="5KqHmV9YIozL0LBUB5xf-3" style="edgeStyle=orthogonalEdgeStyle;rounded=0;orthogonalLoop=1;jettySize=auto;html=1;entryX=0.5;entryY=0;entryDx=0;entryDy=0;" parent="1" source="5KqHmV9YIozL0LBUB5xf-1" target="0XRb7Jwyh2wc5KVwc6p0-10" edge="1">
          <mxGeometry relative="1" as="geometry" />
        </mxCell>
        <mxCell id="5KqHmV9YIozL0LBUB5xf-19" value="&lt;div&gt;Authentication&lt;/div&gt;&lt;div&gt;Request&lt;/div&gt;" style="edgeLabel;html=1;align=center;verticalAlign=middle;resizable=0;points=[];" parent="5KqHmV9YIozL0LBUB5xf-3" vertex="1" connectable="0">
          <mxGeometry x="0.3542" y="-1" relative="1" as="geometry">
            <mxPoint x="13" y="22" as="offset" />
          </mxGeometry>
        </mxCell>
        <mxCell id="5KqHmV9YIozL0LBUB5xf-1" value="API" style="whiteSpace=wrap;html=1;aspect=fixed;align=center;" parent="1" vertex="1">
          <mxGeometry x="287" y="423" width="45" height="45" as="geometry" />
        </mxCell>
        <mxCell id="5KqHmV9YIozL0LBUB5xf-14" style="edgeStyle=orthogonalEdgeStyle;rounded=0;orthogonalLoop=1;jettySize=auto;html=1;" parent="1" source="5KqHmV9YIozL0LBUB5xf-7" target="0XRb7Jwyh2wc5KVwc6p0-7" edge="1">
          <mxGeometry relative="1" as="geometry">
            <Array as="points">
              <mxPoint x="190" y="315" />
              <mxPoint x="190" y="180" />
            </Array>
          </mxGeometry>
        </mxCell>
        <mxCell id="5KqHmV9YIozL0LBUB5xf-15" value="Display Products" style="edgeLabel;html=1;align=center;verticalAlign=middle;resizable=0;points=[];" parent="5KqHmV9YIozL0LBUB5xf-14" vertex="1" connectable="0">
          <mxGeometry x="0.2377" y="-1" relative="1" as="geometry">
            <mxPoint as="offset" />
          </mxGeometry>
        </mxCell>
        <mxCell id="5KqHmV9YIozL0LBUB5xf-28" style="edgeStyle=orthogonalEdgeStyle;rounded=0;orthogonalLoop=1;jettySize=auto;html=1;startArrow=classic;startFill=1;entryX=0.185;entryY=0.039;entryDx=0;entryDy=0;entryPerimeter=0;" parent="1" source="5KqHmV9YIozL0LBUB5xf-7" target="5KqHmV9YIozL0LBUB5xf-27" edge="1">
          <mxGeometry relative="1" as="geometry">
            <mxPoint x="270" y="370" as="targetPoint" />
          </mxGeometry>
        </mxCell>
        <mxCell id="5KqHmV9YIozL0LBUB5xf-7" value="&lt;font style=&quot;font-size: 10px;&quot;&gt;Client Graphical Interface&lt;/font&gt;" style="rounded=0;whiteSpace=wrap;html=1;" parent="1" vertex="1">
          <mxGeometry x="237" y="291" width="70" height="49" as="geometry" />
        </mxCell>
        <mxCell id="5KqHmV9YIozL0LBUB5xf-12" style="edgeStyle=orthogonalEdgeStyle;rounded=0;orthogonalLoop=1;jettySize=auto;html=1;" parent="1" source="5KqHmV9YIozL0LBUB5xf-8" target="0XRb7Jwyh2wc5KVwc6p0-2" edge="1">
          <mxGeometry relative="1" as="geometry">
            <mxPoint x="500" y="180" as="targetPoint" />
            <Array as="points">
              <mxPoint x="450" y="315" />
              <mxPoint x="450" y="180" />
            </Array>
          </mxGeometry>
        </mxCell>
        <mxCell id="5KqHmV9YIozL0LBUB5xf-13" value="Display Orders" style="edgeLabel;html=1;align=center;verticalAlign=middle;resizable=0;points=[];" parent="5KqHmV9YIozL0LBUB5xf-12" vertex="1" connectable="0">
          <mxGeometry x="0.1172" y="1" relative="1" as="geometry">
            <mxPoint as="offset" />
          </mxGeometry>
        </mxCell>
        <mxCell id="5KqHmV9YIozL0LBUB5xf-29" style="edgeStyle=orthogonalEdgeStyle;rounded=0;orthogonalLoop=1;jettySize=auto;html=1;entryX=0.967;entryY=-0.022;entryDx=0;entryDy=0;entryPerimeter=0;endArrow=classic;endFill=1;startArrow=classic;startFill=1;" parent="1" source="5KqHmV9YIozL0LBUB5xf-8" target="5KqHmV9YIozL0LBUB5xf-27" edge="1">
          <mxGeometry relative="1" as="geometry" />
        </mxCell>
        <mxCell id="nmTlqVQciV6P7d-cFu-y-1" style="edgeStyle=orthogonalEdgeStyle;rounded=0;orthogonalLoop=1;jettySize=auto;html=1;entryX=0.993;entryY=0.54;entryDx=0;entryDy=0;entryPerimeter=0;" parent="1" source="5KqHmV9YIozL0LBUB5xf-8" target="5KqHmV9YIozL0LBUB5xf-7" edge="1">
          <mxGeometry relative="1" as="geometry" />
        </mxCell>
        <mxCell id="5KqHmV9YIozL0LBUB5xf-8" value="&lt;font style=&quot;font-size: 9px;&quot;&gt;Provider Graphical Interface&lt;/font&gt;" style="rounded=0;whiteSpace=wrap;html=1;" parent="1" vertex="1">
          <mxGeometry x="330" y="292" width="70" height="48" as="geometry" />
        </mxCell>
        <mxCell id="5KqHmV9YIozL0LBUB5xf-11" style="edgeStyle=orthogonalEdgeStyle;rounded=0;orthogonalLoop=1;jettySize=auto;html=1;" parent="1" source="0XRb7Jwyh2wc5KVwc6p0-2" target="5KqHmV9YIozL0LBUB5xf-8" edge="1">
          <mxGeometry relative="1" as="geometry" />
        </mxCell>
        <mxCell id="5KqHmV9YIozL0LBUB5xf-30" style="edgeStyle=orthogonalEdgeStyle;rounded=0;orthogonalLoop=1;jettySize=auto;html=1;entryX=0.5;entryY=0;entryDx=0;entryDy=0;" parent="1" source="5KqHmV9YIozL0LBUB5xf-27" target="5KqHmV9YIozL0LBUB5xf-1" edge="1">
          <mxGeometry relative="1" as="geometry" />
        </mxCell>
        <mxCell id="5KqHmV9YIozL0LBUB5xf-27" value="Offer Database" style="rounded=0;whiteSpace=wrap;html=1;" parent="1" vertex="1">
          <mxGeometry x="249.5" y="369.5" width="120" height="31" as="geometry" />
        </mxCell>
      </root>
    </mxGraphModel>
  </diagram>
</mxfile>
